<svg version="1.1" id="Layer_1" xmlns="http://www.w3.org/2000/svg" xmlns:xlink="http://www.w3.org/1999/xlink" x="0px" y="0px"
	 width="100%" viewBox="0 0 496 496" enable-background="new 0 0 496 496" xml:space="preserve">
<path fill="#000000" opacity="1.000000" stroke="none" 
	d="
M257.649414,176.980484 
	C257.749481,171.783173 259.250031,167.742889 263.367065,164.947021 
	C265.762543,163.320251 266.045288,161.470612 264.090637,159.119400 
	C258.263428,152.110001 257.780945,144.338577 261.277496,136.176285 
	C262.042542,134.390320 262.188354,132.769852 261.700989,130.883423 
	C258.386444,118.054283 257.120270,104.986916 257.806946,91.774391 
	C258.194672,84.314392 260.810181,77.139648 260.713684,69.554016 
	C260.583893,59.349560 259.683380,49.249657 257.047729,39.400848 
	C252.466812,22.282919 263.380798,9.926145 280.386963,8.834065 
	C289.114960,8.273582 297.651031,9.726502 306.199097,11.094405 
	C311.130157,11.883498 316.030273,12.678497 321.067047,12.765681 
	C327.784668,12.881960 332.971985,16.921812 337.949188,20.752680 
	C349.018158,29.272202 359.609467,38.323605 371.434998,45.948551 
	C381.875427,52.680424 390.385590,61.781322 392.586884,74.988350 
	C392.665558,75.460350 392.880768,76.017006 393.221985,76.322182 
	C402.516022,84.635063 404.511047,96.859421 409.840851,107.291771 
	C411.358643,110.262711 413.102264,113.047066 415.098999,115.748108 
	C421.967529,125.039246 424.117554,135.783310 422.840118,146.969254 
	C422.174377,152.799179 422.942444,157.184357 426.620209,162.051590 
	C436.130219,174.637344 439.718872,189.616531 441.110474,205.024429 
	C442.764374,223.336853 442.622101,241.716873 437.445465,259.501068 
	C435.635529,265.719147 436.681915,269.897797 440.429016,274.761536 
	C447.431274,283.850464 448.759186,294.626343 446.997070,305.623962 
	C444.023590,324.182434 441.061584,342.760498 431.985291,359.696350 
	C425.323761,372.126404 416.743988,382.315735 403.034454,387.169281 
	C401.154633,387.834747 400.296661,388.873505 400.338104,390.792053 
	C400.632080,404.394867 393.643219,414.964874 385.601654,424.865601 
	C378.045898,434.168182 370.156342,443.270996 359.506958,449.339905 
	C357.784729,450.321411 357.076172,452.063446 356.199280,453.634338 
	C346.034119,471.845428 329.875885,481.297729 309.990387,485.257568 
	C307.319366,485.789459 304.960022,486.697174 302.685791,488.228607 
	C293.895477,494.147797 279.762726,492.616058 272.374084,484.857849 
	C267.210938,479.436462 263.708557,473.047424 262.782043,465.491333 
	C262.554840,463.638336 262.229950,461.956879 261.159058,460.353210 
	C255.645218,452.096100 254.460632,443.085266 256.959412,433.586060 
	C257.807159,430.363281 257.868988,427.608917 255.829880,424.633789 
	C253.452911,421.165771 253.064468,417.060028 255.030853,413.200500 
	C256.529510,410.259003 256.114105,407.687317 255.189117,404.665771 
	C252.020660,394.315613 253.790054,383.858521 255.295258,373.485107 
	C256.768494,363.332092 255.331238,353.703247 250.903763,344.131348 
	C244.699280,353.880676 245.411713,364.399841 246.684494,374.735260 
	C248.014496,385.535278 249.838531,396.210175 245.825516,406.804779 
	C245.144730,408.602112 246.100433,410.077026 246.739304,411.562958 
	C248.740372,416.217316 248.528107,420.680481 245.666473,424.877106 
	C244.332321,426.833710 244.087082,428.728607 244.753876,430.996582 
	C247.711914,441.057831 247.218231,450.724670 241.159683,459.682404 
	C239.810562,461.677124 239.561737,463.971832 239.265472,466.319092 
	C237.354355,481.459747 224.902222,492.049561 209.920685,491.322296 
	C208.283096,491.242798 206.327744,491.217468 205.094589,490.349945 
	C196.952057,484.621582 186.934982,484.382385 178.041061,480.852600 
	C164.181580,475.352051 153.369156,466.551117 146.058701,453.516846 
	C145.167542,451.927917 144.312271,450.405762 142.658539,449.321198 
	C126.592850,438.784790 114.172630,424.941956 105.320435,407.884216 
	C102.812294,403.051147 101.484085,397.968628 101.688400,392.513397 
	C101.767349,390.405487 101.580956,388.479156 99.149933,387.690399 
	C83.692955,382.675293 74.779427,370.949341 67.960236,357.137756 
	C59.352016,339.702667 55.959114,320.910950 53.729637,301.823273 
	C52.437904,290.764130 55.917095,281.088440 62.413258,272.382568 
	C64.772682,269.220581 64.782265,266.269470 63.720276,262.595245 
	C58.237854,243.627457 57.725922,224.251907 59.352135,204.703995 
	C60.385105,192.287201 63.243523,180.424957 68.923286,169.293900 
	C69.377121,168.404495 69.613503,167.296265 70.292343,166.646255 
	C77.032242,160.192429 77.712494,152.390656 76.910500,143.505951 
	C75.910164,132.423874 79.238808,122.344887 86.424110,113.339783 
	C91.854004,106.534691 93.255722,97.508148 97.068321,89.736008 
	C99.205963,85.378357 101.180122,80.970680 104.952446,77.733643 
	C106.187126,76.674164 106.642731,75.349525 106.930672,73.837616 
	C109.280624,61.498604 117.168945,52.622967 127.046379,46.328690 
	C138.504745,39.026989 148.729919,30.316238 159.198715,21.868416 
	C166.872925,15.675703 174.924576,11.799105 185.041977,11.684388 
	C193.662903,11.586641 202.052002,8.700646 210.743210,8.281580 
	C216.302216,8.013540 221.831787,8.082203 227.023300,9.943588 
	C239.568222,14.441495 244.899933,24.305153 241.914719,37.782158 
	C238.235382,54.392773 237.700012,70.749596 240.792343,87.714409 
	C243.290222,101.418030 241.520721,115.603600 238.123245,129.315262 
	C237.680969,131.100235 237.156845,132.740646 238.007278,134.631424 
	C242.050629,143.621246 241.487854,152.085922 234.845154,159.770157 
	C234.429108,160.251434 234.226669,160.917358 233.719543,161.891968 
	C236.963547,164.995529 241.644867,167.310974 241.797760,172.563278 
	C242.181656,185.750748 245.065384,199.214691 238.124283,211.688538 
	C237.011261,213.688751 237.823502,215.096603 238.570297,216.793976 
	C244.982315,231.367493 249.574982,246.418839 250.440216,263.449371 
	C251.473541,246.672363 255.475235,231.627960 262.002075,217.241547 
	C262.734192,215.627838 263.090240,214.063004 262.122894,212.480530 
	C255.890900,202.285583 257.564972,190.980560 257.523651,179.916687 
	C257.520538,179.084763 257.595276,178.252533 257.649414,176.980484 
M402.883636,313.550751 
	C406.081604,306.281372 413.642853,302.726776 422.733978,304.125031 
	C426.289368,304.671844 429.686584,306.234192 433.287598,306.057495 
	C437.617523,295.584595 433.597900,282.149109 424.405243,275.771362 
	C420.931854,277.533081 421.398376,282.205078 418.300446,284.460175 
	C416.111603,281.956696 417.214783,279.585388 417.862701,277.224365 
	C420.155640,268.868774 424.212952,261.037628 426.222656,252.692200 
	C431.328278,231.490997 431.026062,210.100906 425.522614,188.970215 
	C423.981995,183.054932 422.477966,176.822601 417.366119,171.251251 
	C414.941986,180.915482 411.091339,188.980652 407.047729,196.985001 
	C405.104889,200.830826 406.507202,203.973282 410.034027,206.436996 
	C414.115356,209.288086 418.754333,211.404770 422.092163,215.255310 
	C423.165771,216.493881 425.304413,217.418900 423.729370,219.953323 
	C414.033752,216.211609 403.774506,214.917389 393.717804,212.745972 
	C389.789703,211.897827 386.425629,212.552246 382.963257,215.044678 
	C375.640839,220.315750 367.670776,224.472809 358.739502,226.503464 
	C357.389832,226.810349 355.682526,226.802582 354.981018,228.633011 
	C356.274261,232.439514 361.215912,234.687180 360.228333,240.225235 
	C354.500763,238.338089 349.450623,235.683197 343.845734,234.807159 
	C341.367035,234.419724 338.829590,233.587143 336.592102,235.195267 
	C329.427612,240.344604 322.124542,245.207153 314.355011,249.466156 
	C309.761780,251.983994 310.296478,256.812775 314.597076,259.826965 
	C318.409698,262.499146 322.220886,265.192291 325.845367,268.108978 
	C329.988678,271.443176 332.744904,275.802277 333.817322,281.044891 
	C334.635437,285.044464 333.265106,287.951202 328.953674,289.594910 
	C328.100189,282.421478 322.520050,280.173981 317.900970,277.137207 
	C310.793335,272.464355 303.495361,267.986664 298.688293,260.724731 
	C296.011688,256.681274 293.181244,256.565735 289.489777,259.079865 
	C281.732971,264.362732 275.691833,271.314545 271.656982,279.597565 
	C263.034821,297.297577 262.570648,316.398682 264.806671,335.357239 
	C266.462524,349.396881 270.732361,350.596222 282.778168,342.862427 
	C288.368195,339.273499 293.908417,335.399536 300.692139,334.327850 
	C303.857452,333.827759 307.179321,333.449066 309.670532,337.881836 
	C301.911438,336.311035 297.473694,340.722046 292.917969,344.905396 
	C286.651001,350.660034 280.469635,356.569733 271.663818,358.272247 
	C270.159607,358.563141 269.086304,359.270050 269.115570,360.833618 
	C269.331390,372.360870 265.774323,383.573486 266.280914,395.111847 
	C266.388153,397.554443 266.535400,400.108978 269.086823,402.139923 
	C284.574524,394.027954 301.686798,389.918488 317.893494,383.007416 
	C318.519379,385.869568 316.735443,386.813354 315.392914,387.955872 
	C310.681519,391.965149 305.488617,395.238159 300.099609,398.279053 
	C291.553406,403.101471 282.980713,407.920410 274.770325,413.278778 
	C269.506622,416.714050 269.961395,420.199371 275.085327,423.741425 
	C281.942261,428.481476 289.512238,429.270416 297.535095,428.373474 
	C304.352142,427.611328 311.200409,427.128021 317.889435,426.534241 
	C318.246246,428.108032 317.882324,428.642578 317.271759,428.980988 
	C308.195160,434.011963 298.851074,438.493744 288.311890,439.079712 
	C284.349548,439.300018 283.003571,441.165375 282.578064,444.455322 
	C282.253357,446.966034 282.167877,449.507690 281.921906,452.747650 
	C279.122040,450.280334 278.611053,447.633057 277.829102,445.177155 
	C276.921112,442.325409 276.334991,439.367615 275.357666,436.542877 
	C274.784088,434.885101 273.278229,433.938690 271.520355,433.706024 
	C270.334778,433.549164 269.605988,434.385345 269.445557,435.437714 
	C268.485657,441.734436 267.519226,448.124634 272.082733,453.534607 
	C273.808197,455.580078 274.541443,457.529205 274.527985,460.252838 
	C274.485168,468.923523 281.320526,478.062683 288.477448,479.421417 
	C290.875305,479.876648 293.225830,479.794922 294.941162,477.818176 
	C296.606934,475.898529 295.209991,474.046936 294.422028,472.262573 
	C292.148834,467.115112 291.185272,461.743469 291.974579,456.171387 
	C292.778046,450.499420 295.423096,448.346558 301.149628,448.599945 
	C304.826019,448.762604 308.450012,448.400024 312.103546,448.194214 
	C317.197479,447.907227 322.433228,446.565918 327.934906,448.444672 
	C322.301575,454.261322 314.410919,457.235413 303.799286,457.377747 
	C300.649658,457.420013 299.439392,458.833496 299.465057,461.480560 
	C299.505219,465.624786 298.267761,470.126648 302.008240,473.483795 
	C302.284302,473.731567 302.982635,473.571167 303.472992,473.508728 
	C318.593750,471.584106 331.563293,465.544128 341.353882,453.537415 
	C342.591492,452.019714 344.576233,450.090332 343.603424,448.261871 
	C340.348938,442.144897 343.591278,436.596619 344.620087,430.902191 
	C345.640167,425.255951 347.194214,419.706146 348.542908,413.991974 
	C343.474304,412.346710 338.777496,413.607452 334.243378,413.695221 
	C322.929291,413.914246 311.772400,408.263245 300.104553,413.326843 
	C300.110352,408.441162 303.393555,407.111481 306.541168,405.808960 
	C314.871887,402.361572 323.725830,402.118896 332.548615,401.767944 
	C346.175751,401.225769 359.050171,399.553375 367.193726,386.211212 
	C372.569122,377.404327 373.003296,376.488007 365.826782,369.298065 
	C362.821106,366.286713 360.635193,362.809418 359.177307,358.855896 
	C358.745026,357.683716 357.956451,356.380585 359.644836,355.096924 
	C361.300690,355.965363 362.985840,356.990234 364.778992,357.765350 
	C372.933044,361.290039 381.945496,355.590302 381.654449,346.826904 
	C381.471405,341.315277 384.092010,337.727203 388.071808,334.598297 
	C394.887817,329.239502 400.439545,322.953766 402.883636,313.550751 
M70.419472,225.157303 
	C70.668671,227.474472 71.009277,229.786072 71.151314,232.109787 
	C71.782120,242.430176 72.867729,252.558746 77.670166,262.065338 
	C80.044670,266.765778 81.227402,272.088562 82.752106,277.188751 
	C83.441780,279.495758 83.760544,281.954132 82.436874,284.799774 
	C79.329468,282.168213 79.385658,277.720551 75.878235,275.809814 
	C69.214432,283.159027 64.925362,291.067657 66.592911,301.229706 
	C67.194862,304.897980 68.866508,306.906189 72.886574,306.689026 
	C84.887222,306.040680 93.928230,311.824951 101.632355,320.291443 
	C108.209435,327.519348 112.638374,337.064117 123.101074,340.080231 
	C123.183426,340.103973 123.191528,340.385284 123.264984,340.661896 
	C122.004715,343.393677 117.976822,341.442200 116.548996,344.830078 
	C118.451088,349.003754 120.091843,353.831848 124.620804,356.563782 
	C130.698578,360.230042 136.671555,359.275787 141.759995,354.484192 
	C143.532959,356.833130 142.586151,358.160614 142.125595,359.544220 
	C140.493256,364.448151 137.187347,368.125275 133.592209,371.670776 
	C131.615417,373.620300 129.247681,375.771484 130.653015,379.036591 
	C134.459244,387.879852 143.841202,400.388916 157.589310,400.711151 
	C164.404541,400.870850 171.216370,401.398865 178.016022,401.934387 
	C184.489075,402.444183 190.965805,403.104095 196.951202,405.948608 
	C199.640610,407.226746 202.089539,408.733795 201.762283,412.942383 
	C196.870422,410.604797 192.252319,411.163208 187.627563,411.313019 
	C181.627090,411.507385 175.880096,413.647766 169.808395,413.332184 
	C165.488968,413.107666 161.148132,413.316742 156.817261,413.282074 
	C154.359192,413.262390 152.642792,414.032959 153.783600,416.800293 
	C156.856689,424.254791 157.750885,432.244873 159.760620,439.957367 
	C160.245407,441.817749 160.523422,443.643646 159.519043,445.281464 
	C157.686996,448.268890 158.797714,450.683075 160.684525,453.022675 
	C170.178452,464.794922 182.672623,471.022308 197.514694,472.840576 
	C199.150543,473.040955 201.218246,473.231995 201.920639,471.362946 
	C203.421646,467.368652 203.423065,463.020660 202.226334,459.100830 
	C201.226532,455.825958 197.597107,457.521027 195.123108,457.222168 
	C187.452087,456.295532 180.460693,453.908203 174.491531,448.953522 
	C175.364075,447.372681 176.379608,447.173370 177.372787,447.203522 
	C186.192413,447.471375 195.020737,447.619904 203.824753,448.158905 
	C207.903519,448.408691 209.952744,451.370392 210.263046,455.259644 
	C210.702744,460.770538 210.368088,466.206024 208.304245,471.478485 
	C205.859634,477.723724 207.794830,479.895996 214.510056,478.701111 
	C217.202576,478.221985 219.572495,477.125641 221.392944,474.981689 
	C225.167267,470.536560 227.570724,465.532959 227.626953,459.603424 
	C227.648041,457.379425 227.883240,455.393738 229.648804,453.694672 
	C233.004868,450.464966 234.026047,446.258575 233.659302,441.787628 
	C233.415955,438.821075 234.429321,434.322235 230.794571,433.649017 
	C226.150055,432.788757 226.610733,437.652618 225.643066,440.656311 
	C224.444687,444.376221 224.207764,448.606598 220.882507,451.611328 
	C219.618881,450.032532 219.969559,448.831573 219.933289,447.697327 
	C219.676926,439.681030 219.368561,439.239960 211.628723,438.411224 
	C201.963699,437.376343 193.440063,433.286499 185.067749,428.754791 
	C184.374084,428.379272 183.645370,427.803772 184.043732,426.735626 
	C185.187759,425.558960 186.493179,426.277740 187.765594,426.424591 
	C196.371704,427.417786 204.981491,428.086182 213.672302,427.871277 
	C219.735611,427.721375 224.502014,424.962769 229.035355,421.458710 
	C231.907913,419.238312 231.828049,416.843079 229.267715,414.343201 
	C226.115845,411.265747 222.218689,409.374298 218.455338,407.228119 
	C207.909561,401.214050 196.811874,396.098511 187.293839,388.395538 
	C185.490158,386.935852 183.159042,385.674408 183.299728,382.320129 
	C199.862000,389.826996 217.436340,393.295959 233.356689,401.810913 
	C235.935471,397.733124 235.851471,393.756744 235.596695,389.794830 
	C234.987961,380.328796 232.568451,371.039368 232.807816,361.487030 
	C232.848694,359.856628 232.413803,358.363037 230.639557,358.008057 
	C220.613937,356.002014 213.681335,349.108124 206.509567,342.680786 
	C202.534668,339.118469 198.159195,336.669495 192.502075,336.476318 
	C195.586929,333.057037 198.918655,333.637573 202.107880,334.290314 
	C207.077606,335.307495 211.419464,337.855316 215.628021,340.564911 
	C218.854126,342.641968 222.075500,344.721161 225.682114,346.058716 
	C230.772186,347.946442 233.151886,346.801666 234.812927,341.693909 
	C235.322754,340.126221 235.591812,338.464874 235.827820,336.825806 
	C238.204697,320.318207 237.349976,304.026855 232.753815,287.936523 
	C229.006195,274.816803 221.017365,265.019379 209.738754,257.672913 
	C207.011185,255.896271 204.716187,256.267761 202.918991,259.028442 
	C197.874512,266.777405 190.520279,271.885559 182.935532,276.803406 
	C178.131546,279.918213 172.669601,282.563293 171.734604,289.250122 
	C166.598740,286.414093 165.647491,282.215118 168.341370,276.468750 
	C172.010681,268.641541 179.062897,264.373444 185.735199,259.712830 
	C190.951599,256.069183 190.947205,250.877258 185.236465,248.318695 
	C178.473465,245.288681 172.416168,241.219223 166.559235,236.833633 
	C163.143539,234.275970 159.800797,233.995193 155.783768,234.935349 
	C150.482269,236.176147 145.596558,238.597565 140.114182,240.506943 
	C139.063477,234.883896 144.745956,232.524796 145.067139,227.719543 
	C135.394302,225.490280 126.432083,221.854523 118.546463,216.187164 
	C114.008713,212.925919 109.517334,212.609451 104.404083,213.637436 
	C95.015732,215.524887 85.515007,216.909225 76.332222,220.787735 
	C75.667717,217.791504 77.263290,216.265625 78.942978,215.005524 
	C82.530930,212.313812 86.271126,209.826080 89.914444,207.206787 
	C92.820824,205.117310 95.051300,202.375793 93.489479,198.725296 
	C89.736374,189.952988 84.623047,181.775070 82.526192,170.975174 
	C72.289230,188.423279 70.725716,206.188904 70.419472,225.157303 
M311.952454,203.005127 
	C311.679688,210.018250 313.763733,217.285721 310.397919,224.471573 
	C308.194702,222.829865 308.923370,221.175781 308.655029,219.803925 
	C307.395752,213.366196 300.446655,206.725143 294.560120,207.480896 
	C285.514404,208.642273 277.908264,213.832611 274.058624,221.535263 
	C267.122498,235.413574 263.657532,250.593262 262.468964,266.160339 
	C262.322998,268.072144 262.004608,270.175568 264.196350,272.137451 
	C270.026337,265.789764 276.549194,260.268768 283.579559,255.259460 
	C290.038300,250.657410 290.108795,248.769775 286.812042,241.251450 
	C286.433838,240.388977 285.647308,239.495407 286.821075,238.752548 
	C287.722809,238.460876 288.165680,239.022018 288.629669,239.483475 
	C296.611847,247.421997 303.436249,248.000595 313.023438,241.778656 
	C319.487000,237.583878 325.378662,232.700882 330.769226,227.246887 
	C335.348816,222.613419 339.431854,217.550522 341.533997,211.207687 
	C344.573395,202.037048 341.429260,193.748322 337.513611,185.761948 
	C330.257355,170.961990 329.557068,156.166702 336.084686,140.920578 
	C340.512207,130.579514 339.698120,126.661110 331.576965,119.199562 
	C326.252228,114.307320 322.624481,108.653908 320.463623,101.772209 
	C318.485321,95.471954 316.613770,88.984146 310.371765,85.115486 
	C305.284546,81.962555 301.685059,77.620689 299.559784,71.833687 
	C297.456116,66.105530 293.080170,65.638367 288.817352,70.225273 
	C287.684540,71.444199 286.994965,73.319359 284.378143,73.232773 
	C285.860809,67.816010 288.649139,64.224602 293.958984,63.181107 
	C299.064575,62.177750 302.830414,64.542076 305.178802,68.810852 
	C308.619415,75.065025 314.642822,77.190437 320.299347,79.633179 
	C327.260162,72.876648 327.702789,65.863861 322.542145,58.329361 
	C321.414948,56.683666 320.381104,54.956184 319.480286,53.177242 
	C317.908569,50.073132 315.842346,47.124203 315.591400,43.520100 
	C315.427002,41.159737 315.197571,38.581734 318.700775,37.549549 
	C319.065399,40.124447 318.204071,42.449928 319.412079,44.630661 
	C321.442474,48.296162 323.832397,51.651684 326.631897,54.771515 
	C333.199463,62.090591 335.749420,70.024773 330.680145,79.413452 
	C328.346588,83.735382 327.953003,88.480743 328.887238,93.484940 
	C330.344910,101.292793 335.191956,106.377106 340.342285,112.094269 
	C346.539581,118.973656 351.876190,122.764679 360.931335,118.241249 
	C363.161987,117.126938 366.088684,117.837090 367.128113,121.451035 
	C365.999115,121.653702 365.199768,121.788246 364.404022,121.941414 
	C356.688385,123.426559 351.224518,129.113922 350.052338,136.850830 
	C349.501801,140.484741 348.696869,144.073730 347.097565,147.391922 
	C342.368134,157.204590 342.747742,166.911179 347.129883,176.750061 
	C349.837280,182.828842 351.911743,189.150223 353.362000,195.682114 
	C355.245117,204.163437 352.868286,212.044922 349.717773,220.583725 
	C351.204865,219.827255 351.901978,219.445969 352.620728,219.111084 
	C361.417450,215.012573 369.012512,208.901093 377.473480,204.257019 
	C384.317230,200.500595 384.404938,200.458160 377.864136,195.790390 
	C377.679260,195.658463 377.730042,195.196304 377.606018,194.549789 
	C381.080322,192.679352 384.308472,194.398499 387.468506,195.458344 
	C393.992188,197.646332 397.497650,196.287170 400.778717,190.162781 
	C404.184967,183.804779 406.427643,177.027054 408.282532,170.095718 
	C409.327454,166.191101 407.875122,162.763229 405.760986,159.766754 
	C404.259186,157.638138 401.456665,157.165512 398.957703,157.438049 
	C396.669800,157.687561 396.772552,160.074127 396.245575,161.745483 
	C394.892883,166.035400 393.630371,170.361084 391.526154,174.361267 
	C390.420013,176.464050 389.263000,178.614456 386.388336,179.085739 
	C386.054382,176.751053 387.294220,175.214615 387.652618,173.469696 
	C389.494995,164.499954 390.032501,155.494736 385.071503,147.366837 
	C382.688354,143.462433 381.883575,140.071548 383.316711,135.687256 
	C387.262329,123.616791 379.884766,109.003525 367.885651,104.495461 
	C361.181671,101.976776 354.384735,99.608604 348.742859,94.981445 
	C347.212433,93.726265 345.195312,92.598824 345.496643,89.023987 
	C353.555267,95.376244 362.736969,94.983902 371.508362,96.294250 
	C373.183807,96.544556 374.728027,96.984383 375.822235,95.013992 
	C378.346191,90.469131 376.723785,85.929222 371.855560,84.362305 
	C370.433319,83.904533 368.947845,83.644188 367.523163,83.192924 
	C349.769653,77.569588 339.452698,70.459572 345.613495,49.782215 
	C345.847717,48.996098 345.801117,48.129299 345.918915,47.304893 
	C346.200653,45.333549 345.581879,43.767971 344.086060,42.408665 
	C337.800629,36.696892 331.584045,30.883238 324.540009,26.111475 
	C319.193268,22.489504 310.638947,23.389997 306.033569,27.878878 
	C303.895874,29.962486 302.128021,32.419987 300.102753,34.625561 
	C294.778992,40.423325 289.103821,46.106911 296.811005,54.887882 
	C290.517883,53.301487 287.406830,48.192280 288.166962,42.448124 
	C288.841522,37.350777 291.225372,32.958336 293.962280,28.754541 
	C295.887634,25.797245 295.134766,23.830370 292.177155,22.305241 
	C287.677368,19.984892 282.841003,19.399357 278.090240,20.671457 
	C273.608734,21.871469 269.617249,24.445635 269.203552,29.679945 
	C268.569275,37.705952 271.285095,45.269428 272.493561,53.269176 
	C276.651337,52.235798 278.378723,47.504700 283.345978,48.329948 
	C279.692108,54.588272 275.352844,60.141613 274.161713,66.878647 
	C271.235687,83.428947 268.351685,100.019035 271.370819,116.953880 
	C272.142242,121.281158 273.794647,122.609772 278.128937,121.181671 
	C282.213806,119.835754 286.530884,119.194649 291.447418,118.085159 
	C290.352417,120.881454 288.980286,122.224869 287.353973,122.894981 
	C279.837067,125.992195 275.507019,131.160370 273.251709,139.267426 
	C271.756317,144.642715 271.350464,148.401047 275.102478,152.882629 
	C281.495819,160.519135 280.555328,166.939972 272.871826,173.632675 
	C271.735992,174.622009 270.309357,175.432571 270.268433,177.104294 
	C270.073029,185.083603 269.464539,193.081192 270.861115,201.017319 
	C271.404114,204.102844 273.021851,205.210220 276.214172,204.074341 
	C280.916870,202.401138 285.715240,200.994247 290.484955,199.512985 
	C293.127380,198.692368 294.587616,197.132004 294.974426,194.220810 
	C295.881744,187.392410 298.072693,180.824524 301.491211,174.938293 
	C306.042206,167.102081 307.286530,159.591232 302.524689,151.463638 
	C301.198425,149.199936 300.505676,146.534805 299.716949,143.993439 
	C298.505157,140.088913 298.158691,136.102570 299.858307,132.249969 
	C302.709778,125.786400 300.760590,120.190514 296.798798,115.028900 
	C293.250946,110.406647 289.430176,105.994469 285.854828,101.392448 
	C284.638977,99.827461 282.961487,98.205711 284.124420,95.308586 
	C287.738892,98.275368 290.904541,101.164696 294.362122,103.647354 
	C300.389648,107.975304 305.703918,112.930000 309.301178,119.481224 
	C310.525757,121.711403 312.159241,121.984940 314.311279,121.415367 
	C317.025391,120.697029 319.438690,121.001053 321.545990,123.584854 
	C320.605225,124.223572 319.913635,124.645813 319.273193,125.134995 
	C308.833221,133.109390 307.740204,136.759079 313.286255,146.143570 
	C313.961365,147.285965 314.384186,148.574905 315.022888,149.741760 
	C320.189972,159.181427 320.515808,168.256973 313.840485,177.331955 
	C309.594177,183.104721 306.972626,189.445740 310.835236,196.745667 
	C311.642548,198.271317 311.462555,200.319427 311.952454,203.005127 
M161.286591,132.387253 
	C161.212051,136.178375 162.719879,139.519943 164.266479,142.848267 
	C169.165939,153.391998 170.505478,164.208252 166.501434,175.333176 
	C164.192032,181.749634 161.294632,187.972229 159.285614,194.474792 
	C156.421677,203.744492 157.465286,212.729111 163.716095,220.453140 
	C171.111069,229.590988 179.899231,237.248398 190.143112,243.087646 
	C197.734116,247.414688 204.179565,246.476562 210.647171,240.460129 
	C211.333664,239.821518 211.900803,238.767548 213.268951,239.740524 
	C213.659836,240.632126 213.302734,241.554947 212.825699,242.433655 
	C210.341736,247.009171 211.404037,250.680420 215.547134,253.677917 
	C222.415482,258.647125 229.374130,263.509888 235.168228,269.796295 
	C235.590530,270.254486 236.347488,270.416656 237.254257,269.721710 
	C239.105194,263.078094 237.137848,256.425476 235.622192,249.895737 
	C232.116531,234.792557 230.200363,219.206482 214.470367,209.929138 
	C203.229431,203.299393 194.034271,209.809128 191.986969,219.788727 
	C191.715347,221.112732 192.566925,222.897858 190.478973,223.597549 
	C188.465057,222.192017 188.028702,219.959503 188.061523,217.865921 
	C188.183548,210.084656 187.207703,202.048523 189.959045,194.662704 
	C192.336258,188.281189 190.169647,183.395065 187.076630,178.347397 
	C186.293503,177.069382 185.455688,175.823151 184.604538,174.588867 
	C180.758255,169.011185 179.795639,162.983444 181.839752,156.523193 
	C183.249313,152.068375 185.189468,147.843399 187.472458,143.761047 
	C190.893295,137.644058 190.446594,135.376602 186.113373,129.772430 
	C183.944138,126.966949 180.393311,125.947777 178.240372,123.194031 
	C179.990021,120.221954 182.720627,120.448227 185.004623,121.074791 
	C188.365021,121.996658 189.524139,120.639275 190.997330,117.835922 
	C196.346130,107.657700 206.769409,102.815231 215.019333,94.668495 
	C216.102997,97.965828 214.622253,99.473351 213.450180,100.968765 
	C210.061127,105.292824 206.351807,109.384674 203.201019,113.871597 
	C199.833801,118.666740 196.550156,123.882683 199.285370,130.055618 
	C201.782440,135.691116 201.407410,141.019333 199.134033,146.486252 
	C197.536697,150.327408 196.119171,154.245926 194.437592,158.048645 
	C192.970139,161.367096 193.099167,164.338242 194.996948,167.524246 
	C198.063553,172.672470 201.868790,177.909454 202.290863,183.832916 
	C203.227356,196.976044 211.786255,201.045746 222.708054,203.075974 
	C223.032578,203.136292 223.349960,203.260818 223.656219,203.389771 
	C227.098755,204.839050 228.822754,203.633652 229.725586,200.044891 
	C231.137390,194.433044 230.359268,188.771042 230.673355,183.139526 
	C230.930664,178.526062 229.723221,174.911911 225.857056,171.816132 
	C220.423874,167.465576 218.796509,160.626038 222.860138,155.299881 
	C228.043182,148.506516 228.281754,142.965546 224.835175,134.983856 
	C222.512329,129.604446 219.718307,126.628975 215.115814,124.138870 
	C212.536911,122.743599 209.558151,121.507431 208.493408,117.586830 
	C213.871841,118.816795 218.728958,119.786102 223.499039,121.077080 
	C225.944687,121.738976 227.307190,121.507309 227.687332,118.707405 
	C229.186249,107.667107 231.237411,96.666214 228.045425,85.547508 
	C227.041016,82.048828 226.144653,78.410980 225.978882,74.801010 
	C225.566376,65.818291 222.435577,57.949463 217.291885,50.738205 
	C216.579712,49.739777 215.136749,48.912132 216.389206,47.210003 
	C220.414825,47.157879 222.111801,52.123524 226.540146,52.185577 
	C227.628403,46.658001 228.625305,41.290653 229.751343,35.950539 
	C231.217926,28.995495 229.833847,25.544724 224.090637,21.482134 
	C218.969070,17.859285 213.550079,19.101042 208.220627,20.444693 
	C203.140839,21.725397 202.305099,24.267431 205.025757,28.894772 
	C207.554596,33.195919 210.389618,37.337112 210.957748,42.513809 
	C211.599747,48.363583 208.218399,53.289955 201.739319,54.024132 
	C209.562927,46.458828 204.505569,40.995190 199.919800,35.441628 
	C198.010513,33.129414 196.166428,30.762939 194.239227,28.466002 
	C187.413803,20.330997 178.312119,20.018021 170.562103,27.551405 
	C166.383301,31.613401 162.474854,36.099167 157.761017,39.425159 
	C152.812622,42.916653 151.626312,46.805145 153.549149,52.168758 
	C158.832748,66.906815 151.207214,75.911110 138.872864,80.717361 
	C134.537460,82.406708 130.037460,83.669640 125.635254,85.192703 
	C121.442490,86.643303 122.354805,89.886292 122.825447,93.097710 
	C123.260139,96.063789 124.796158,97.103523 127.627335,96.578423 
	C136.194031,94.989571 145.272110,95.294884 152.792511,89.792198 
	C152.893341,89.718430 153.314575,90.082535 153.695053,90.306229 
	C153.371094,93.526192 150.815231,94.959427 148.547684,96.561653 
	C142.766495,100.646568 136.105225,102.869621 129.605789,105.448914 
	C119.842918,109.323265 112.401276,125.229645 116.023994,134.955017 
	C117.816086,139.765991 117.863419,143.985947 114.376137,147.981201 
	C113.035080,149.517593 112.428894,151.358353 112.094421,153.412369 
	C110.638977,162.350143 110.599838,171.156479 113.707787,179.990814 
	C106.313538,174.383545 105.093834,165.459824 101.894241,157.747650 
	C93.602516,158.605453 92.134171,160.169312 91.965630,167.885605 
	C91.749893,177.762573 96.612946,185.854935 101.599869,193.677032 
	C104.644691,198.452896 110.004082,199.267075 115.288223,197.260284 
	C118.555618,196.019394 121.803383,194.711121 125.125359,193.634933 
	C127.449875,192.881866 129.859314,192.614975 131.962845,194.629990 
	C123.040581,201.074051 123.408508,205.066589 133.225464,210.828461 
	C137.101028,213.103149 140.942200,215.436859 144.831696,217.687225 
	C146.088730,218.414490 147.409088,219.361496 148.907471,218.180649 
	C149.457443,217.116653 149.030777,216.154541 148.680786,215.253586 
	C146.278748,209.070129 145.601456,202.749023 146.632843,196.166550 
	C147.781387,188.836166 150.945984,182.187836 153.397522,175.306503 
	C156.176529,167.505920 156.903824,159.647339 154.243866,151.795334 
	C152.215881,145.808914 149.642563,140.030563 149.270447,133.584900 
	C149.151520,131.525055 147.815552,129.941467 146.263947,128.559814 
	C142.071030,124.826111 137.659683,121.566528 130.872299,121.928734 
	C133.182404,118.440193 135.611221,117.720123 138.356079,118.269852 
	C141.612442,118.922035 144.856140,119.749023 147.999237,120.813545 
	C149.889160,121.453644 151.120392,121.417923 152.111359,119.522713 
	C154.331879,115.276009 158.011734,112.370178 161.611115,109.392326 
	C170.051498,102.409409 173.728195,89.114792 168.450775,79.501709 
	C163.262299,70.050598 165.969894,62.579395 171.730911,55.160759 
	C175.967957,49.704590 181.342865,44.860428 179.451553,35.484558 
	C183.575287,39.373314 183.575256,42.619381 182.577881,46.076721 
	C181.220856,50.780670 178.793243,54.983170 176.017868,58.937607 
	C171.753342,65.013771 171.360397,70.703247 176.406540,76.638107 
	C178.080994,78.607445 179.144180,79.454308 181.691849,78.184746 
	C186.798660,75.639885 191.572662,73.143631 194.401825,67.586273 
	C196.672455,63.125992 201.821289,61.625938 206.534195,63.044167 
	C210.842239,64.340569 213.332840,67.235344 213.812653,71.955345 
	C211.350388,72.007950 210.864639,70.069412 209.709335,69.018295 
	C205.609131,65.287811 201.644302,65.798409 199.892822,70.881294 
	C197.702621,77.237427 193.570389,81.693970 188.177063,85.301529 
	C184.423233,87.812416 182.090530,91.227783 180.985245,95.704872 
	C178.537582,105.619354 174.058167,114.369827 165.941284,121.009827 
	C162.727478,123.638878 160.857117,127.159592 161.286591,132.387253 
M424.747711,346.240540 
	C428.569489,335.868317 431.502533,325.299225 432.438263,314.427002 
	C431.704742,314.089355 431.559784,313.975372 431.403931,313.957794 
	C428.266205,313.603333 425.127106,313.261139 421.988556,312.914215 
	C415.312714,312.176270 412.694153,313.551758 409.355743,319.356842 
	C407.868042,321.943787 406.383392,324.562439 404.598541,326.942657 
	C399.910187,333.194977 400.124969,334.259918 407.159882,337.953094 
	C410.314453,339.609161 413.471466,341.352875 413.408173,346.081177 
	C412.363708,345.729370 411.725372,345.589355 411.154572,345.310913 
	C401.772552,340.734772 394.083801,343.137177 389.087646,352.136932 
	C387.800110,354.456177 386.497650,356.829620 384.810211,358.851013 
	C381.569275,362.733276 381.695953,367.124115 382.389618,371.634705 
	C382.760712,374.047668 384.342896,375.351379 386.832184,375.610260 
	C397.715790,376.742249 406.802124,373.333038 413.914246,364.940887 
	C418.472443,359.562286 422.033478,353.588470 424.747711,346.240540 
M100.331711,344.088226 
	C95.938591,343.360779 92.191719,346.340942 87.493835,346.641205 
	C88.479927,341.240631 92.174042,339.189026 96.276680,337.750244 
	C100.488029,336.273285 100.712982,333.487762 98.706474,330.357574 
	C96.926308,327.580475 94.408409,325.288483 92.444267,322.614777 
	C86.459511,314.468048 78.321716,313.789856 69.378639,315.277313 
	C69.014748,330.359039 78.846741,356.636719 88.863968,366.890472 
	C95.625366,373.811554 103.921951,376.996796 113.751877,375.898529 
	C117.564278,375.472565 119.422173,373.563629 119.746574,369.869171 
	C120.044838,366.472198 119.749298,363.299103 117.553703,360.411560 
	C115.646378,357.903168 113.544128,355.335907 112.471260,352.444641 
	C110.448769,346.994232 106.575073,344.684143 100.331711,344.088226 
M120.539520,409.936096 
	C128.382629,420.816498 136.957809,430.970245 148.627075,438.329437 
	C142.970703,431.398010 143.352722,423.434113 143.813934,415.425873 
	C143.955353,412.970306 144.290085,410.356445 141.528992,408.821075 
	C133.592545,404.407806 128.631790,397.367157 125.135704,389.316101 
	C123.248306,384.969666 120.353607,387.108398 117.623795,387.243774 
	C114.706284,387.388367 114.222855,389.281799 114.110191,391.678802 
	C113.795250,398.379761 116.982773,403.832794 120.539520,409.936096 
M357.973969,428.129211 
	C357.261688,431.553345 355.178955,434.409943 353.805328,437.679718 
	C355.711517,437.966919 356.883820,436.839264 357.910614,435.930603 
	C368.922272,426.185913 379.045746,415.655304 385.410522,402.168762 
	C386.797577,399.229736 387.332672,395.810120 387.817627,392.546143 
	C388.296936,389.320435 386.857391,387.211273 383.329376,386.602112 
	C380.223541,386.065918 377.893036,385.530762 376.347443,389.606323 
	C373.469635,397.194763 368.721008,403.672302 361.655090,407.998993 
	C358.380066,410.004395 357.598236,412.638977 358.446930,416.037018 
	C359.397675,419.843597 359.470795,423.597961 357.973969,428.129211 
M409.044067,130.634888 
	C405.725403,123.341019 400.400452,117.232971 396.990570,109.961464 
	C393.724701,102.997147 392.699188,94.856812 386.668854,88.527466 
	C383.067749,96.741882 385.162994,103.665054 388.227051,110.445381 
	C391.400299,117.467339 394.800171,124.609390 393.307007,132.456772 
	C391.215332,143.449326 399.086945,146.341339 406.629059,147.710205 
	C409.230499,148.182373 410.693176,147.120560 410.772339,144.219162 
	C410.891449,139.854141 410.526123,135.574722 409.044067,130.634888 
M100.300003,114.661682 
	C98.826805,117.841721 96.804756,120.627281 94.681023,123.426331 
	C89.129883,130.742676 88.648567,139.153442 89.744713,148.205841 
	C92.915176,148.142990 95.480034,147.716858 97.987053,146.807556 
	C105.476227,144.091171 107.580925,140.736374 106.486534,132.830154 
	C106.163963,130.499802 106.251221,128.267181 106.489624,125.929405 
	C107.247070,118.501923 111.137611,112.110703 113.043816,105.074615 
	C114.493912,99.722107 114.428108,94.517670 112.349503,88.070511 
	C106.909927,96.956017 104.407448,105.769035 100.300003,114.661682 
M369.325317,75.096054 
	C372.660156,75.655884 375.992798,76.303894 380.107880,75.565178 
	C375.226349,63.567986 366.654968,56.331097 355.621002,51.389568 
	C349.838654,62.164982 353.228394,70.702194 364.152710,73.966927 
	C365.570526,74.390648 367.055908,74.588295 369.325317,75.096054 
M133.112747,74.568718 
	C145.396729,70.808350 149.024902,62.776333 143.328735,51.952629 
	C134.323593,53.809612 119.256256,68.375389 120.125542,76.375656 
	C124.201653,75.809578 128.274551,75.243942 133.112747,74.568718 
M249.420349,280.179016 
	C244.268066,288.366577 248.914749,296.106567 250.396851,304.211884 
	C254.399292,294.999695 255.284317,286.043976 250.223160,276.956085 
	C249.992752,277.935486 249.804596,278.735321 249.420349,280.179016 
z"/>
<path fill="#000000" opacity="1.000000" stroke="none" 
	d="
M391.737762,246.766144 
	C390.642365,252.001755 391.284393,255.777908 396.630188,257.998322 
	C400.872833,259.760529 403.476868,263.726349 406.011078,267.469269 
	C406.937378,268.837311 407.794250,270.341797 406.476196,272.276459 
	C403.283783,272.767975 401.246307,269.946381 398.477448,269.094910 
	C392.166595,267.154205 390.804108,267.495819 388.119812,273.453430 
	C385.896912,278.387054 382.442841,281.967133 377.598511,284.333496 
	C366.025909,289.986603 356.222961,298.469696 345.037903,304.776184 
	C340.995422,307.055450 341.683502,311.122742 346.182709,313.823730 
	C352.915222,317.865479 360.411621,317.771881 367.570618,316.288666 
	C383.559113,312.976105 396.378571,305.167908 402.123871,288.744904 
	C402.337952,288.132874 402.730286,287.561829 403.137329,287.049316 
	C403.294128,286.851898 403.723969,286.871338 404.697815,286.618164 
	C405.821564,294.273804 403.283234,300.767120 398.638000,306.232513 
	C386.267944,320.786804 370.217407,327.303864 351.247681,326.098083 
	C345.181824,325.712555 341.429626,328.008240 338.715668,333.065796 
	C335.406433,339.232788 333.798462,345.720093 334.152191,352.749542 
	C334.301971,355.726562 335.213196,358.135254 337.108246,360.459442 
	C341.197144,365.474213 345.753693,370.198334 348.182892,376.377563 
	C349.935883,380.836700 349.567566,383.520874 346.215820,387.401367 
	C346.209869,375.138550 336.436920,371.510071 328.803894,366.030060 
	C327.589325,365.158081 326.400665,364.175293 324.725403,365.041779 
	C313.686981,370.750946 301.133392,371.988068 289.796021,376.881958 
	C285.227112,378.854187 280.416382,380.219208 277.196259,384.651611 
	C275.645050,381.014313 275.850769,380.337372 279.007050,377.304108 
	C286.227234,370.365356 295.128967,366.177124 304.043304,362.014862 
	C305.096710,361.523041 306.179901,361.001648 307.305969,360.773254 
	C318.797394,358.442108 323.412048,350.157196 325.728943,339.769073 
	C326.377838,336.859741 327.523834,334.060974 328.168457,331.150970 
	C330.280579,321.616272 325.648315,312.088806 316.922089,307.748199 
	C306.017792,302.324158 299.901154,303.202362 290.562286,311.104553 
	C287.323517,313.845032 284.439301,317.171417 280.379333,318.826843 
	C280.017975,318.348724 279.616852,318.007141 279.677429,317.871124 
	C283.683990,308.872101 289.227783,300.995239 298.109772,296.365479 
	C308.828064,290.778473 318.756256,294.906433 327.628448,300.899170 
	C331.933411,303.806946 334.773254,302.970093 338.279663,300.679382 
	C350.675354,292.581360 353.319122,280.688995 351.392853,267.014160 
	C351.279663,266.210815 351.160858,265.407623 351.083130,264.600647 
	C351.071625,264.481323 351.274536,264.341339 351.741791,263.753723 
	C357.060944,267.913818 356.611359,275.065369 360.190491,280.240936 
	C370.159424,275.204285 379.745636,270.348236 379.105072,256.782074 
	C378.911957,252.692139 379.859467,248.498489 380.646393,244.422211 
	C382.457336,235.041489 385.658295,231.765991 395.013153,230.463806 
	C404.432953,229.152542 413.379791,231.707733 423.098236,234.597961 
	C420.377106,237.181107 417.718506,237.015839 415.246368,237.103149 
	C409.744019,237.297531 404.304291,237.848633 398.872070,238.801163 
	C394.437225,239.578766 391.957367,241.769516 391.737762,246.766144 
z"/>
<path fill="#000000" opacity="1.000000" stroke="none" 
	d="
M94.826180,293.923676 
	C94.919060,291.086304 94.572464,288.544037 96.503731,286.658051 
	C98.755478,287.204407 98.679115,289.003601 99.189400,290.260101 
	C106.940849,309.347168 129.551910,320.807190 149.574097,315.693237 
	C151.173889,315.284607 152.804871,314.765106 154.229050,313.957855 
	C156.244934,312.815247 158.384933,311.509552 158.355484,308.764832 
	C158.326324,306.046417 156.295517,304.813416 154.190567,303.640564 
	C142.271576,296.999207 131.511780,288.487427 119.343018,282.205414 
	C115.645691,280.296692 113.160286,276.548401 111.946503,272.452850 
	C110.748123,268.409241 108.391800,267.940002 104.702415,268.777985 
	C100.776642,269.669678 97.781921,272.756714 92.752129,273.340759 
	C94.360252,266.564331 98.362038,262.175385 103.341614,258.706665 
	C108.875351,254.851913 110.496941,250.694717 108.422668,244.166733 
	C107.333725,240.739700 104.621826,239.624802 101.567604,239.257797 
	C94.963135,238.464218 88.329521,237.913361 81.708206,237.259369 
	C80.440964,237.134186 79.043282,237.431442 77.932304,236.173416 
	C78.167519,235.703644 78.280724,235.037766 78.584221,234.935242 
	C87.961273,231.767807 97.571587,229.509506 107.465050,231.140442 
	C113.519920,232.138611 117.901459,235.650040 119.533287,242.245468 
	C120.984612,248.111298 121.474312,254.086273 121.999733,260.000183 
	C122.676949,267.622559 126.055420,272.753479 132.809677,276.021790 
	C135.330231,277.241455 137.666901,278.841125 140.269135,280.374603 
	C144.764938,275.710999 142.711533,267.941101 148.637863,264.103271 
	C150.449493,266.146210 149.200302,268.269226 148.900238,270.233337 
	C146.849854,283.654755 153.593430,296.526184 165.480560,302.090515 
	C168.009293,303.274231 169.922134,303.572815 172.185257,301.482605 
	C174.891113,298.983551 178.319351,297.470367 181.740112,296.151794 
	C194.813782,291.112366 203.450104,293.384491 212.856598,304.210175 
	C216.402466,308.291046 219.922913,312.388275 221.779007,318.346680 
	C218.230484,317.493866 216.374496,315.304993 214.210495,313.640320 
	C211.575867,311.613617 209.151733,309.251526 206.328995,307.542511 
	C197.336761,302.098358 188.686417,302.864136 181.063965,309.474915 
	C172.653473,316.769135 170.391205,325.616425 174.295700,335.468903 
	C176.254532,340.411804 177.468765,345.618164 179.769012,350.458893 
	C181.438980,353.973328 183.807648,356.298248 187.511063,357.704987 
	C200.129349,362.498047 212.663391,367.527863 222.753113,376.959839 
	C224.390060,378.490143 226.485901,379.894501 225.710205,383.340302 
	C221.827942,381.670227 218.859955,378.717163 215.026291,377.397247 
	C206.370483,374.417023 197.701767,371.511597 188.802765,369.321716 
	C186.062042,368.647247 183.062469,368.221069 180.753418,366.770630 
	C176.506348,364.102814 173.364395,364.973419 169.603485,367.854645 
	C163.393753,372.611938 156.438797,376.530853 155.451324,386.218506 
	C151.909302,383.223938 152.572952,380.341858 153.249802,377.524994 
	C154.668549,371.620544 158.698730,367.273499 162.436356,362.838440 
	C164.843445,359.982239 165.876221,357.021454 165.810959,353.292511 
	C165.687515,346.240692 164.961761,339.343353 162.303894,332.758575 
	C159.667709,326.227478 156.026520,324.587646 149.384888,326.848969 
	C125.013733,335.146912 98.373032,319.278839 94.826180,293.923676 
z"/>
<path fill="#000000" opacity="1.000000" stroke="none" 
	d="
M364.370361,180.216095 
	C364.393585,173.774826 361.243317,168.235641 361.672150,162.160156 
	C362.050079,156.805603 363.572388,152.026825 368.416382,148.973618 
	C369.938385,148.014267 371.494141,146.958832 374.203247,148.201675 
	C369.355743,155.571686 372.341370,163.468521 372.537201,171.278763 
	C372.721558,178.632645 370.279297,185.098770 365.482910,191.310791 
	C362.599792,187.395386 364.981110,183.900665 364.370361,180.216095 
z"/>
<path fill="#000000" opacity="1.000000" stroke="none" 
	d="
M128.619385,159.974960 
	C129.068893,155.368530 127.346992,151.832672 124.707947,147.978027 
	C129.623306,146.771744 132.394562,149.315918 134.711441,152.186127 
	C138.270813,156.595566 139.284561,161.991608 137.954285,167.286606 
	C136.236389,174.124557 135.102966,180.878250 136.006104,187.909790 
	C136.132874,188.896805 135.903488,189.924011 134.126907,190.590347 
	C129.780182,184.962967 127.177544,178.597107 127.397774,171.267593 
	C127.506813,167.638565 128.192307,164.026886 128.619385,159.974960 
z"/>
</svg>